<?xml version="1.0" encoding="utf-8"?>
<?xml-stylesheet type="text/xsl" href="rss1.xsl"?>
<rss version="2.0" xmlns:atom="http://www.w3.org/2005/Atom" xmlns:content="http://purl.org/rss/1.0/modules/content/" xmlns:dc="http://purl.org/dc/elements/1.1/" xmlns:media="http://search.yahoo.com/mrss/">
<channel>
 <title>Getty</title>
 <link>http://www.gettyimg.com/</link>
 <atom:link href="http://www.gettyimg.com/" rel="self" type="application/rss+xml" />

 
                <item>
                <title><![CDATA[【PRORES HD】Jonas Brothers - Who's In Your Head (Master ProRes LPCM 1080p)]]></title>
                <link><![CDATA[https://sharemania.us/threads/jonas-brothers-whos-in-your-head-master-prores-lpcm-1080p.240591/]]></link>
                <description><![CDATA[<article>
<blockquote class="messageText SelectQuoteContainer ugc baseHtml">
<div style="text-align: center"><img src="https://i.imgur.com/luPPA55.png" class="bbCodeImage LbImage" alt="[​IMG]" data-url="https://i.imgur.com/luPPA55.png" style=""> <br>
<br>
<div class="ToggleTriggerAnchor bbCodeSpoilerContainer">
<button type="button" class="button bbCodeSpoilerButton ToggleTrigger Tooltip JsOnly" data-target="> .SpoilerTarget"><span>Spoiler: <span class="SpoilerTitle">Mediainfo</span></span></button>
<div class="SpoilerTarget bbCodeSpoilerText">Format : MPEG-4<br>
Format profile : QuickTime<br>
Codec ID : qt 2005.03 (qt )<br>
File size : 3.79 GiB<br>
Duration : 3 min 6 s<br>
Overall bit rate mode : Variable<br>
Overall bit rate : 175 Mb/s<br>
Frame rate : 23.976 FPS<br>
Encoded date : 2021-09-28 18:08:53 UTC<br>
Tagged date : 2021-09-28 18:13:45 UTC<br>
Writing library : Apple QuickTime<br>
TIM : 00:00:00:00<br>
TSC : 24000<br>
TSZ : 1001<br>
<br>
Video<br>
ID : 1<br>
Format : ProRes<br>
Format version : Version 0<br>
Format profile : 422 HQ<br>
Codec ID : apch<br>
Duration : 3 min 6 s<br>
Bit rate mode : Variable<br>
Bit rate : 173 Mb/s<br>
Width : 1 920 pixels<br>
Height : 1 080 pixels<br>
Display aspect ratio : 16:9<br>
Frame rate mode : Constant<br>
Frame rate : 23.976 (24000/1001) FPS<br>
Color space : YUV<br>
Chroma subsampling : 4:2:2<br>
Scan type : Progressive<br>
Bits/(Pixel*Frame) : 3.480<br>
Stream size : 3.76 GiB (99%)<br>
Writing library : Apple<br>
Language : English<br>
Encoded date : 2021-09-28 18:08:53 UTC<br>
Tagged date : 2021-09-28 18:08:53 UTC<br>
Color primaries : BT.709<br>
Transfer characteristics : BT.709<br>
Matrix coefficients : BT.709<br>
<br>
Audio<br>
ID : 2<br>
Format : PCM<br>
Format settings : Little / Signed<br>
Codec ID : sowt<br>
Duration : 3 min 6 s<br>
Bit rate mode : Constant<br>
Bit rate : 1 536 kb/s<br>
Channel(s) : 2 channels<br>
Channel layout : L R<br>
Sampling rate : 48.0 kHz<br>
Bit depth : 16 bits<br>
Stream size : 34.2 MiB (1%)<br>
Language : English<br>
Encoded date : 2021-09-28 18:08:53 UTC<br>
Tagged date : 2021-09-28 18:08:53 UTC<br>
<br>
Other<br>
ID : 3<br>
Type : Time code<br>
Format : QuickTime TC<br>
Duration : 3 min 6 s<br>
Frame rate : 23.976 (24000/1001) FPS<br>
Time code of first frame : 00:00:00:00<br>
Time code of last frame : 00:03:06:07<br>
Time code, stripped : Yes<br>
Language : English<br>
Encoded date : 2021-09-28 18:08:53 UTC<br>
Tagged date : 2021-09-28 18:08:53 UTC</div>
</div><br>
<div class="bbCodeBlock bbCodeVfcHH HiddenContent">
<div class="attribution type">Hidden Content:</div>
<blockquote>You must either reply or click 'Like' to see the hidden information contained here.</blockquote>
</div></div>
<div class="messageTextEndMarker">&nbsp;</div>
</blockquote>
</article>]]></description>
                <author><![CDATA[SUPREME]]></author>
                </item>

                
                <item>
                <title><![CDATA[【Requests】[REQ VID] - Anyone.But.You.2023.2160p.WEB.H265-HowIFeelAboutDonaldTrump]]></title>
                <link><![CDATA[https://sharemania.us/threads/anyone-but-you-2023-2160p-web-h265-howifeelaboutdonaldtrump.240589/]]></link>
                <description><![CDATA[<article>
<blockquote class="messageText SelectQuoteContainer ugc baseHtml">
Thank you so much, I hope more Jonas Brothers videos come soon
<div class="messageTextEndMarker">&nbsp;</div>
</blockquote>
</article>]]></description>
                <author><![CDATA[TheShadowDragon]]></author>
                </item>

                
                <item>
                <title><![CDATA[【PRORES HD】Anitta - Boys Don't Cry (Master ProRes 4K LPCM)]]></title>
                <link><![CDATA[https://sharemania.us/threads/anitta-boys-dont-cry-master-prores-4k-lpcm.240588/]]></link>
                <description><![CDATA[<article>
<blockquote class="messageText SelectQuoteContainer ugc baseHtml">
Would it be possible if anyone can upload this new movie?
<div class="messageTextEndMarker">&nbsp;</div>
</blockquote>
</article>]]></description>
                <author><![CDATA[SUPREME]]></author>
                </item>

                
                <item>
                <title><![CDATA[【UPSCALED】Lasgo - Something (2003) [1080p] [DD-5.1] - TeN$!oN]]></title>
                <link><![CDATA[https://sharemania.us/threads/lasgo-something-2003-1080p-dd-5-1-ten-on.240590/]]></link>
                <description><![CDATA[<article>
<blockquote class="messageText SelectQuoteContainer ugc baseHtml">
<div style="text-align: center"><img src="https://i.imgur.com/S4SrIxB.png" class="bbCodeImage LbImage" alt="[​IMG]" data-url="https://i.imgur.com/S4SrIxB.png" style=""> <br>
<br>
<div class="ToggleTriggerAnchor bbCodeSpoilerContainer">
<button type="button" class="button bbCodeSpoilerButton ToggleTrigger Tooltip JsOnly" data-target="> .SpoilerTarget"><span>Spoiler: <span class="SpoilerTitle">Mediainfo</span></span></button>
<div class="SpoilerTarget bbCodeSpoilerText">Format : MPEG-4<br>
Format profile : QuickTime<br>
Codec ID : qt 2005.03 (qt )<br>
File size : 11.7 GiB<br>
Duration : 2 min 25 s<br>
Overall bit rate mode : Variable<br>
Overall bit rate : 689 Mb/s<br>
Frame rate : 23.976 FPS<br>
Encoded date : 2022-01-21 06:27:15 UTC<br>
Tagged date : 2022-01-21 06:37:51 UTC<br>
Writing library : Apple QuickTime<br>
TIM : 01:00:00:00<br>
TSC : 24000<br>
TSZ : 1001<br>
Video<br>
ID : 1<br>
Format : ProRes<br>
Format version : Version 0<br>
Format profile : 422 HQ<br>
Codec ID : apch<br>
Duration : 2 min 25 s<br>
Bit rate mode : Variable<br>
Bit rate : 687 Mb/s<br>
Width : 3 840 pixels<br>
Height : 2 160 pixels<br>
Display aspect ratio : 16:9<br>
Frame rate mode : Constant<br>
Frame rate : 23.976 (24000/1001) FPS<br>
Color space : YUV<br>
Chroma subsampling : 4:2:2<br>
Scan type : Progressive<br>
Bits/(Pixel*Frame) : 3.456<br>
Stream size : 11.7 GiB (100%)<br>
Writing library : Apple<br>
Language : English<br>
Encoded date : 2022-01-21 06:27:15 UTC<br>
Tagged date : 2022-01-21 06:27:15 UTC<br>
Color primaries : BT.709<br>
Transfer characteristics : BT.709<br>
Matrix coefficients : BT.709<br>
Menus : 0<br>
Audio<br>
ID : 2<br>
Format : PCM<br>
Format settings : Little / Signed<br>
Codec ID : sowt<br>
Duration : 2 min 25 s<br>
Bit rate mode : Constant<br>
Bit rate : 1 536 kb/s<br>
Channel(s) : 2 channels<br>
Channel layout : L R<br>
Sampling rate : 48.0 kHz<br>
Bit depth : 16 bits<br>
Stream size : 26.7 MiB (0%)<br>
Language : English<br>
Encoded date : 2022-01-21 06:27:15 UTC<br>
Tagged date : 2022-01-21 06:27:15 UTC<br>
Menus : 0<br>
Other<br>
ID : 3<br>
Type : Time code<br>
Format : QuickTime TC<br>
Duration : 2 min 25 s<br>
Frame rate : 23.976 (24000/1001) FPS<br>
Time code of first frame : 01:00:00:00<br>
Time code of last frame : 01:02:25:13<br>
Time code, stripped : Yes<br>
Language : English<br>
Encoded date : 2022-01-21 06:27:15 UTC<br>
Tagged date : 2022-01-21 06:27:15 UTC</div>
</div><br>
<div class="bbCodeBlock bbCodeVfcHH HiddenContent">
<div class="attribution type">Hidden Content:</div>
<blockquote>You must either reply or click 'Like' to see the hidden information contained here.</blockquote>
</div></div>
<div class="messageTextEndMarker">&nbsp;</div>
</blockquote>
</article>]]></description>
                <author><![CDATA[deleriumdj]]></author>
                </item>

                
                <item>
                <title><![CDATA[【PRORES HD】The Weeknd - Die For You (Master ProRes LPCM 1080p)]]></title>
                <link><![CDATA[https://sharemania.us/threads/the-weeknd-die-for-you-master-prores-lpcm-1080p.240593/]]></link>
                <description><![CDATA[<article>
<blockquote class="messageText SelectQuoteContainer ugc baseHtml">
Lasgo - Something (2003) [1080p] [DD-5.1].mkv<br>
<br>
<img src="https://www.mediafire.com/view/4h3ld3om4aayfi2/Lasgo_-_Something_iris1.mkv_thumbs.jpg/file" class="bbCodeImage LbImage" alt="[​IMG]" data-url="https://www.mediafire.com/view/4h3ld3om4aayfi2/Lasgo_-_Something_iris1.mkv_thumbs.jpg/file" style=""> <br>
<a href="https://www.mediafire.com/view/4h3ld3om4aayfi2/Lasgo_-_Something_iris1.mkv_thumbs.jpg/file" target="_blank" class="externalLink" rel="nofollow">https://www.mediafire.com/view/4h3ld3om4aayfi2/Lasgo_-_Something_iris1.mkv_thumbs.jpg/file</a><br>
<br>
<br>
<a href="https://www.mediafire.com/file/fjhtnnh8rw23cby/Lasgo_-_Something_iris1.mkv/file" target="_blank" class="externalLink" rel="nofollow">https://www.mediafire.com/file/fjhtnnh8rw23cby/Lasgo_-_Something_iris1.mkv/file</a><br>
<br>
Size: 429 MB<br>
Container: Matroska (mkv)<br>
Video Stream: 1920 x 1080 [h.264]<br>
Audio Stream : Dolby Digital 5.1, 448 kbps
<div class="messageTextEndMarker">&nbsp;</div>
</blockquote>
</article>]]></description>
                <author><![CDATA[SUPREME]]></author>
                </item>

                
                <item>
                <title><![CDATA[【PRORES HD】Lizzo - About Damn Time (Master ProRes LPCM 1080p)]]></title>
                <link><![CDATA[https://sharemania.us/threads/lizzo-about-damn-time-master-prores-lpcm-1080p.240592/]]></link>
                <description><![CDATA[<article>
<blockquote class="messageText SelectQuoteContainer ugc baseHtml">
<div style="text-align: center"><img src="https://i.imgur.com/w7pVylg.png" class="bbCodeImage LbImage" alt="[​IMG]" data-url="https://i.imgur.com/w7pVylg.png" style=""> <br>
<br>
<div class="ToggleTriggerAnchor bbCodeSpoilerContainer">
<button type="button" class="button bbCodeSpoilerButton ToggleTrigger Tooltip JsOnly" data-target="> .SpoilerTarget"><span>Spoiler: <span class="SpoilerTitle">Mediainfo</span></span></button>
<div class="SpoilerTarget bbCodeSpoilerText">Format : MPEG-4<br>
Format profile : QuickTime<br>
Codec ID : qt 2005.03 (qt )<br>
File size : 5.73 GiB<br>
Duration : 4 min 40 s<br>
Overall bit rate mode : Variable<br>
Overall bit rate : 176 Mb/s<br>
Frame rate : 23.976 FPS<br>
Encoded date : 2021-11-22 20:28:34 UTC<br>
Tagged date : 2021-11-22 20:30:11 UTC<br>
Writing library : Apple QuickTime<br>
TIM : 00:00:00:00<br>
TSC : 24000<br>
TSZ : 1001<br>
<br>
Video<br>
ID : 1<br>
Format : ProRes<br>
Format version : Version 0<br>
Format profile : 422 HQ<br>
Codec ID : apch<br>
Duration : 4 min 40 s<br>
Bit rate mode : Variable<br>
Bit rate : 174 Mb/s<br>
Width : 1 920 pixels<br>
Height : 1 080 pixels<br>
Display aspect ratio : 16:9<br>
Frame rate mode : Constant<br>
Frame rate : 23.976 (24000/1001) FPS<br>
Color space : YUV<br>
Chroma subsampling : 4:2:2<br>
Scan type : Progressive<br>
Bits/(Pixel*Frame) : 3.503<br>
Stream size : 5.68 GiB (99%)<br>
Writing library : Apple<br>
Language : English<br>
Encoded date : 2021-11-22 20:28:34 UTC<br>
Tagged date : 2021-11-22 20:28:34 UTC<br>
Color primaries : BT.709<br>
Transfer characteristics : BT.709<br>
Matrix coefficients : BT.709<br>
<br>
Audio<br>
ID : 2<br>
Format : PCM<br>
Format settings : Little / Signed<br>
Codec ID : sowt<br>
Duration : 4 min 40 s<br>
Bit rate mode : Constant<br>
Bit rate : 1 536 kb/s<br>
Channel(s) : 2 channels<br>
Channel layout : L R<br>
Sampling rate : 48.0 kHz<br>
Bit depth : 16 bits<br>
Stream size : 51.3 MiB (1%)<br>
Language : English<br>
Encoded date : 2021-11-22 20:28:34 UTC<br>
Tagged date : 2021-11-22 20:28:34 UTC<br>
<br>
Other<br>
ID : 3<br>
Type : Time code<br>
Format : QuickTime TC<br>
Duration : 4 min 40 s<br>
Frame rate : 23.976 (24000/1001) FPS<br>
Time code of first frame : 00:00:00:00<br>
Time code of last frame : 00:04:39:17<br>
Time code, stripped : Yes<br>
Language : English<br>
Encoded date : 2021-11-22 20:28:34 UTC<br>
Tagged date : 2021-11-22 20:28:34 UTC</div>
</div><br>
<div class="bbCodeBlock bbCodeVfcHH HiddenContent">
<div class="attribution type">Hidden Content:</div>
<blockquote>You must either reply or click 'Like' to see the hidden information contained here.</blockquote>
</div></div>
<div class="messageTextEndMarker">&nbsp;</div>
</blockquote>
</article>]]></description>
                <author><![CDATA[SUPREME]]></author>
                </item>

                </channel></rss>